<?xml version="1.0" encoding="iso-8859-1"?>
<!-- Generator: Adobe Illustrator 19.0.0, SVG Export Plug-In . SVG Version: 6.00 Build 0)  -->
<svg version="1.1" id="Layer_1" xmlns="http://www.w3.org/2000/svg" xmlns:xlink="http://www.w3.org/1999/xlink" x="0px" y="0px"
	 viewBox="0 0 512 512" style="enable-background:new 0 0 512 512;" xml:space="preserve">
<g>
	<g>
		<g>
			<path d="M384,0c-71.771,0-128,56.229-128,128c0,80.688,82.826,172.056,111.227,201.03l-6.893,4.595
				c-4.906,3.271-6.229,9.885-2.958,14.792c2.052,3.083,5.438,4.75,8.885,4.75c2.031,0,4.083-0.583,5.906-1.792l17.75-11.833
				c0.24-0.16,0.19-0.289,0.324-0.438c0.349-0.258,0.759-0.382,1.082-0.688C396.25,333.76,512,223.26,512,128
				C512,56.229,455.771,0,384,0z M384,192c-35.292,0-64-28.708-64-64s28.708-64,64-64c35.292,0,64,28.708,64,64S419.292,192,384,192
				z"/>
			<path d="M202.833,438.625l-12.044,8.03C222.513,405.439,256,349.915,256,298.667c0-71.771-56.229-128-128-128
				s-128,56.229-128,128c0,95.26,115.75,205.76,120.677,210.417c2.052,1.948,4.688,2.917,7.323,2.917
				c2.031,0,3.98-0.758,5.745-1.914c0.057,0.004,0.116,0.16,0.172,0.122l17.75-11.833c3.631-2.421,5.27-6.674,4.565-10.711
				c3.682-3.987,7.785-8.603,12.043-13.491c0.048,0.077,0.049,0.167,0.1,0.243c2.052,3.083,5.438,4.75,8.885,4.75
				c2.031,0,4.083-0.583,5.906-1.792l31.5-21c4.906-3.271,6.229-9.885,2.958-14.792
				C214.365,436.677,207.729,435.354,202.833,438.625z M128,362.667c-35.292,0-64-28.708-64-64c0-35.292,28.708-64,64-64
				s64,28.708,64,64C192,333.958,163.292,362.667,128,362.667z"/>
			<path d="M328.833,354.625l-31.5,21c-4.906,3.271-6.229,9.885-2.958,14.792c2.052,3.083,5.438,4.75,8.885,4.75
				c2.031,0,4.083-0.583,5.906-1.792l31.5-21c4.906-3.271,6.229-9.885,2.958-14.792C340.365,352.667,333.75,351.365,328.833,354.625
				z"/>
			<path d="M265.833,396.625l-31.5,21c-4.906,3.271-6.229,9.885-2.958,14.792c2.052,3.083,5.438,4.75,8.885,4.75
				c2.031,0,4.083-0.583,5.906-1.792l31.5-21c4.906-3.271,6.229-9.885,2.958-14.792
				C277.365,394.677,270.719,393.344,265.833,396.625z"/>
		</g>
	</g>
</g>
<g>
</g>
<g>
</g>
<g>
</g>
<g>
</g>
<g>
</g>
<g>
</g>
<g>
</g>
<g>
</g>
<g>
</g>
<g>
</g>
<g>
</g>
<g>
</g>
<g>
</g>
<g>
</g>
<g>
</g>
</svg>
