<svg id="Capa_1" enable-background="new 0 0 512 512" height="512" viewBox="0 0 512 512" width="512" xmlns="http://www.w3.org/2000/svg"><g><path d="m423.905 275.708c0-22.602-19.047-40.989-42.459-40.989h-26.574c-.005 0-.011.001-.016.001s-.011-.001-.016-.001c-8.284 0-15 6.716-15 15v100c0 8.284 6.716 15 15 15s15-6.716 15-15v-21.682l27.806 31.592c2.965 3.369 7.104 5.09 11.266 5.09 3.52 0 7.055-1.231 9.904-3.74 6.219-5.473 6.823-14.951 1.35-21.17l-22.937-26.061c15.616-6.06 26.676-20.822 26.676-38.04zm-42.459-10.989c6.754 0 12.459 5.032 12.459 10.989 0 5.956-5.705 10.988-12.459 10.988-2.768 0-7.103.016-11.472.036-.021-4.246-.046-17.562-.058-22.014h11.53z"/><path d="m465.185 108.394c3.954-6.694 6.233-14.49 6.233-22.811 0-24.813-20.187-45-45-45-8.322 0-16.117 2.279-22.812 6.233-47.436-33.537-105.134-49.952-163.569-46.32-62.273 3.865-120.891 30.316-165.054 74.48-48.354 48.353-74.983 112.641-74.983 181.022s26.629 132.669 74.982 181.021c48.352 48.353 112.64 74.981 181.022 74.981 68.38 0 132.668-26.629 181.021-74.981 44.164-44.163 70.615-102.781 74.48-165.054 3.628-58.441-12.784-116.135-46.32-163.571zm-23.767-22.811c0 8.271-6.729 15-15 15s-15-6.729-15-15 6.729-15 15-15 15 6.728 15 15zm-25.606 330.223c-88.119 88.118-231.497 88.12-319.617 0-42.686-42.686-66.195-99.441-66.195-159.808 0-60.368 23.508-117.122 66.195-159.809 77.216-77.215 199.172-87.708 288.056-26.311-1.828 4.892-2.833 10.183-2.833 15.705 0 6.939 1.581 13.514 4.398 19.389l-110.426 110.426c-5.875-2.817-12.451-4.398-19.39-4.398-24.813 0-45 20.187-45 45s20.187 45 45 45 45-20.187 45-45c0-6.939-1.581-13.514-4.398-19.389l110.426-110.426c5.875 2.817 12.451 4.398 19.389 4.398 5.522 0 10.812-1.005 15.705-2.833 61.399 88.885 50.905 210.84-26.31 288.056zm-144.812-159.806c0 8.271-6.729 15-15 15s-15-6.729-15-15 6.729-15 15-15c8.272 0 15 6.729 15 15z"/></g></svg>