<?xml version="1.0" encoding="iso-8859-1"?>
<!-- Generator: Adobe Illustrator 19.0.0, SVG Export Plug-In . SVG Version: 6.00 Build 0)  -->
<svg version="1.1" id="Capa_1" xmlns="http://www.w3.org/2000/svg" xmlns:xlink="http://www.w3.org/1999/xlink" x="0px" y="0px"
	 viewBox="0 0 512 512" style="enable-background:new 0 0 512 512;" xml:space="preserve">
<g>
	<g>
		<path d="M256,155.609c-52.383,0-95,42.617-95,95s42.617,95,95,95s95-42.617,95-95S308.383,155.609,256,155.609z"/>
	</g>
</g>
<g>
	<g>
		<path d="M497,235.012c-8.284,0-15,6.716-15,15c0,124.904-101.078,225.989-226,225.989c-124.904,0-226-101.067-226-225.989
			c0-75.505,37.404-145.116,99.083-187.025l-7.508,44.072c-1.391,8.167,4.102,15.915,12.269,17.306
			c8.177,1.391,15.916-4.111,17.306-12.268l12.893-75.686c1.395-8.195-4.205-15.933-12.269-17.306L76.083,6.214
			c-8.176-1.39-15.915,4.102-17.306,12.269c-1.391,8.167,4.102,15.915,12.269,17.306l35.86,6.107C41.159,89.045,0,165.558,0,250.012
			c0,141.487,114.498,255.989,256,255.989c141.488,0,256-114.487,256-255.989C512,241.728,505.284,235.012,497,235.012z"/>
	</g>
</g>
<g>
</g>
<g>
</g>
<g>
</g>
<g>
</g>
<g>
</g>
<g>
</g>
<g>
</g>
<g>
</g>
<g>
</g>
<g>
</g>
<g>
</g>
<g>
</g>
<g>
</g>
<g>
</g>
<g>
</g>
</svg>
